<?xml version="1.0" standalone="no"?>
<!DOCTYPE svg PUBLIC "-//W3C//DTD SVG 20010904//EN"
 "http://www.w3.org/TR/2001/REC-SVG-20010904/DTD/svg10.dtd">
<svg version="1.0" xmlns="http://www.w3.org/2000/svg"
 width="265.000000pt" height="121.000000pt" viewBox="0 0 265.000000 121.000000"
 preserveAspectRatio="xMidYMid meet">

<g transform="translate(0.000000,121.000000) scale(0.100000,-0.100000)"
fill="#000000" stroke="none">
<path d="M656 1113 c-13 -4 -15 -7 -7 -13 9 -5 8 -11 -4 -24 -15 -15 -15 -16
2 -17 10 -1 -2 -7 -27 -15 -24 -8 -48 -21 -53 -29 -4 -8 -27 -18 -50 -22 -34
-5 -54 -18 -108 -72 -80 -80 -111 -136 -107 -194 l3 -42 22 45 c12 25 28 61
36 81 17 41 75 111 87 104 4 -3 34 11 66 31 56 34 62 35 124 29 49 -4 61 -3
50 5 -28 21 69 1 125 -25 47 -23 91 -63 162 -149 12 -15 26 -44 30 -64 10 -48
10 -147 1 -192 l-8 -35 17 35 c12 25 17 63 17 131 l1 97 -85 82 c-47 45 -108
105 -136 132 -28 27 -69 56 -90 63 -29 10 -33 14 -16 15 23 0 23 0 -4 25 -15
14 -27 24 -28 24 -1 -1 -10 -4 -20 -6z"/>
<path d="M498 1080 c-20 -11 -40 -25 -44 -32 -4 -6 10 -1 32 12 67 40 75 53
12 20z"/>
<path d="M588 1053 c6 -2 18 -2 25 0 6 3 1 5 -13 5 -14 0 -19 -2 -12 -5z"/>
<path d="M490 1020 c-84 -43 -161 -119 -200 -195 -29 -56 -34 -78 -36 -148
l-3 -82 9 70 c15 124 53 200 139 278 29 25 79 60 113 76 34 17 55 31 47 31 -8
-1 -39 -14 -69 -30z"/>
<path d="M750 955 c24 -8 46 -13 48 -11 5 5 -59 26 -77 25 -9 0 4 -7 29 -14z"/>
<path d="M329 923 c-13 -16 -12 -17 4 -4 9 7 17 15 17 17 0 8 -8 3 -21 -13z"/>
<path d="M830 923 c31 -22 58 -49 89 -88 l23 -30 -17 30 c-26 44 -56 75 -90
91 l-30 14 25 -17z"/>
<path d="M643 923 c9 -2 23 -2 30 0 6 3 -1 5 -18 5 -16 0 -22 -2 -12 -5z"/>
<path d="M613 903 c9 -2 23 -2 30 0 6 3 -1 5 -18 5 -16 0 -22 -2 -12 -5z"/>
<path d="M535 890 c-7 -12 2 -12 30 0 19 8 19 9 -2 9 -12 1 -25 -3 -28 -9z"/>
<path d="M750 896 c0 -2 7 -7 16 -10 8 -3 12 -2 9 4 -6 10 -25 14 -25 6z"/>
<path d="M756 864 c21 -14 50 -36 63 -48 13 -11 21 -15 16 -7 -5 9 -4 12 3 7
6 -4 9 -13 6 -20 -3 -8 -1 -17 5 -21 6 -3 11 -11 11 -17 0 -7 -4 -7 -13 0 -10
9 -13 -3 -13 -61 0 -40 -3 -103 -6 -140 -5 -75 3 -75 32 -1 10 27 19 41 20 32
0 -32 -39 -108 -82 -155 l-42 -48 42 40 c24 22 57 69 75 104 57 116 36 245
-54 326 -18 17 -27 22 -20 13 17 -23 9 -23 -31 2 -48 29 -57 24 -12 -6z"/>
<path d="M445 859 c-11 -17 1 -21 15 -4 8 9 8 15 2 15 -6 0 -14 -5 -17 -11z"/>
<path d="M940 795 c0 -5 5 -17 10 -25 5 -8 10 -10 10 -5 0 6 -5 17 -10 25 -5
8 -10 11 -10 5z"/>
<path d="M463 746 c-25 -22 -28 -30 -27 -86 1 -77 19 -102 104 -147 48 -26 70
-32 89 -27 25 7 24 8 -11 14 -20 4 -61 21 -91 39 -45 28 -57 41 -71 82 -21 56
-12 97 26 129 13 11 20 19 16 20 -4 0 -19 -11 -35 -24z"/>
<path d="M539 740 c-13 -10 -19 -19 -13 -20 6 0 19 9 29 20 23 26 14 26 -16 0z"/>
<path d="M192 730 c0 -14 2 -19 5 -12 2 6 2 18 0 25 -3 6 -5 1 -5 -13z"/>
<path d="M133 729 c-7 -7 -13 -19 -13 -27 0 -7 -4 -11 -9 -8 -4 3 -18 -5 -31
-19 -24 -26 -24 -48 2 -117 16 -42 34 -66 24 -31 -4 13 -2 31 4 40 9 15 9 14
5 -7 -6 -29 25 -96 43 -93 7 2 12 -1 12 -5 0 -5 7 -17 15 -28 8 -10 2 11 -14
48 -37 83 -47 148 -31 187 15 38 10 78 -7 60z m-13 -82 c0 -5 -4 -5 -10 -2 -5
3 -10 14 -10 23 0 15 2 15 10 2 5 -8 10 -19 10 -23z"/>
<path d="M491 704 c0 -11 3 -14 6 -6 3 7 2 16 -1 19 -3 4 -6 -2 -5 -13z"/>
<path d="M550 679 c0 -38 36 -89 64 -89 9 0 4 11 -15 31 -16 17 -29 39 -29 48
0 9 -5 23 -10 31 -7 11 -10 6 -10 -21z"/>
<path d="M157 669 c-8 -37 7 -131 25 -159 7 -11 8 -10 3 5 -4 11 -10 58 -14
105 -5 72 -8 80 -14 49z"/>
<path d="M402 675 c0 -16 2 -22 5 -12 2 9 2 23 0 30 -3 6 -5 -1 -5 -18z"/>
<path d="M991 684 c0 -11 3 -14 6 -6 3 7 2 16 -1 19 -3 4 -6 -2 -5 -13z"/>
<path d="M1073 665 c0 -22 2 -30 4 -17 2 12 2 30 0 40 -3 9 -5 -1 -4 -23z"/>
<path d="M517 683 c-4 -3 -7 -18 -6 -32 1 -26 1 -25 10 3 9 31 7 41 -4 29z"/>
<path d="M182 660 c0 -14 2 -19 5 -12 2 6 2 18 0 25 -3 6 -5 1 -5 -13z"/>
<path d="M482 660 c0 -14 2 -19 5 -12 2 6 2 18 0 25 -3 6 -5 1 -5 -13z"/>
<path d="M808 674 c-5 -4 -8 -16 -8 -26 0 -11 -7 -32 -15 -49 -9 -16 -13 -35
-9 -41 10 -15 46 68 42 99 -2 14 -6 21 -10 17z"/>
<path d="M962 650 c0 -14 2 -19 5 -12 2 6 2 18 0 25 -3 6 -5 1 -5 -13z"/>
<path d="M1123 600 c0 -25 2 -35 4 -22 2 12 2 32 0 45 -2 12 -4 2 -4 -23z"/>
<path d="M1092 605 c0 -16 2 -22 5 -12 2 9 2 23 0 30 -3 6 -5 -1 -5 -18z"/>
<path d="M31 603 c-1 -12 4 -25 9 -28 12 -7 12 2 0 30 -8 19 -9 19 -9 -2z"/>
<path d="M736 586 c-8 -20 -18 -36 -21 -36 -3 0 -1 9 5 19 5 11 10 26 10 33 0
7 -14 -11 -30 -41 -17 -30 -28 -56 -26 -58 2 -2 17 8 33 21 31 26 61 82 50 92
-3 4 -13 -10 -21 -30z"/>
<path d="M951 604 c0 -11 3 -14 6 -6 3 7 2 16 -1 19 -3 4 -6 -2 -5 -13z"/>
<path d="M1062 595 c0 -16 2 -22 5 -12 2 9 2 23 0 30 -3 6 -5 -1 -5 -18z"/>
<path d="M337 585 c-21 -72 -19 -89 17 -132 38 -44 124 -93 163 -93 13 0 23
-4 23 -10 0 -24 -112 15 -173 61 l-42 31 43 -39 c45 -41 117 -73 164 -73 31 0
46 -16 21 -23 -10 -3 -4 -5 14 -6 26 -1 30 2 26 17 -4 15 7 23 59 41 35 12 71
23 80 24 9 1 15 3 12 6 -2 3 15 24 38 48 23 24 37 43 30 43 -10 0 -10 5 -2 21
24 43 1 27 -35 -26 -51 -73 -121 -110 -192 -100 -47 6 -132 44 -103 45 8 0 -7
13 -35 28 -32 17 -55 39 -65 60 -9 18 -19 29 -23 25 -5 -4 -5 0 -2 8 3 8 2 26
-3 39 -9 23 -10 23 -15 5z"/>
<path d="M578 573 c12 -2 30 -2 40 0 9 3 -1 5 -23 4 -22 0 -30 -2 -17 -4z"/>
<path d="M1082 550 c0 -14 2 -19 5 -12 2 6 2 18 0 25 -3 6 -5 1 -5 -13z"/>
<path d="M1111 534 c0 -11 3 -14 6 -6 3 7 2 16 -1 19 -3 4 -6 -2 -5 -13z"/>
<path d="M961 524 c0 -11 3 -14 6 -6 3 7 2 16 -1 19 -3 4 -6 -2 -5 -13z"/>
<path d="M1276 518 c-21 -30 -20 -54 4 -78 20 -20 64 -27 74 -11 3 4 -6 6 -19
3 -33 -6 -55 14 -55 48 0 34 22 54 55 48 13 -3 22 -1 19 3 -11 18 -63 9 -78
-13z"/>
<path d="M1972 483 c3 -57 4 -58 33 -60 20 -1 23 0 8 4 -16 3 -23 12 -23 28 0
17 7 25 23 28 l22 4 -22 2 c-31 1 -31 38 0 44 16 3 12 5 -11 6 l-33 1 3 -57z"/>
<path d="M745 520 c-3 -5 -1 -10 4 -10 6 0 11 5 11 10 0 6 -2 10 -4 10 -3 0
-8 -4 -11 -10z"/>
<path d="M1380 470 c0 -48 1 -50 28 -49 23 2 24 2 5 6 -27 5 -31 39 -5 46 16
4 16 5 0 6 -26 2 -22 29 5 34 19 4 18 4 -5 6 -27 1 -28 -1 -28 -49z"/>
<path d="M1452 475 c1 -37 2 -42 5 -16 l4 34 35 -34 34 -33 -2 50 c-1 44 -2
45 -5 11 l-4 -39 -34 39 -34 38 1 -50z"/>
<path d="M1562 513 c12 -3 18 -18 21 -51 l3 -47 2 47 c2 35 6 48 20 51 9 3 -1
5 -23 5 -22 0 -32 -2 -23 -5z"/>
<path d="M1630 475 c0 -25 5 -45 10 -45 6 0 10 8 10 17 0 14 4 12 25 -7 14
-13 25 -19 25 -13 0 6 -7 16 -15 23 -11 9 -13 16 -5 24 12 12 13 46 1 46 -5 0
-7 -9 -4 -20 4 -14 0 -20 -11 -20 -9 0 -16 8 -16 20 0 11 -4 20 -10 20 -5 0
-10 -20 -10 -45z"/>
<path d="M1720 470 c0 -48 1 -50 28 -49 23 2 24 2 5 6 -27 5 -31 39 -5 46 16
4 16 5 0 6 -26 2 -22 29 5 34 19 4 18 4 -5 6 -27 1 -28 -1 -28 -49z"/>
<path d="M1832 473 c-2 -47 0 -53 19 -53 39 0 59 19 59 54 0 22 -6 36 -16 40
-24 9 -31 7 -11 -5 33 -19 15 -79 -24 -79 -14 0 -19 10 -22 48 l-3 47 -2 -52z"/>
<path d="M1936 503 c-6 -14 -5 -15 5 -6 7 7 10 15 7 18 -3 3 -9 -2 -12 -12z"/>
<path d="M2062 508 c-7 -7 -12 -24 -12 -40 0 -30 29 -52 58 -45 13 4 13 5 -3
6 -43 2 -59 45 -29 75 8 9 12 16 7 16 -5 0 -14 -5 -21 -12z"/>
<path d="M2150 501 c-5 -11 -10 -26 -10 -35 0 -16 26 -46 41 -46 5 0 0 9 -11
20 -24 24 -24 29 -4 58 8 12 11 22 5 22 -6 0 -15 -9 -21 -19z"/>
<path d="M2220 505 c7 -9 10 -27 6 -45 -6 -35 -1 -39 14 -10 13 25 5 56 -17
64 -13 5 -14 4 -3 -9z"/>
<path d="M2262 473 c3 -43 6 -48 28 -50 14 -1 18 0 8 3 -14 4 -18 16 -18 50 0
24 -5 44 -11 44 -6 0 -9 -19 -7 -47z"/>
<path d="M2342 508 c-21 -21 -14 -66 11 -79 21 -12 21 -11 5 8 -22 24 -23 47
-2 67 8 9 12 16 7 16 -5 0 -14 -5 -21 -12z"/>
<path d="M2404 504 c20 -20 20 -34 0 -63 -16 -22 -16 -23 5 -12 33 18 24 91
-12 91 -5 0 -1 -7 7 -16z"/>
<path d="M2462 508 c-7 -7 -12 -24 -12 -38 0 -34 17 -50 52 -50 29 0 44 19 35
42 -4 8 -8 5 -12 -9 -8 -25 -34 -30 -53 -11 -17 17 -15 44 4 62 8 9 12 16 7
16 -5 0 -14 -5 -21 -12z"/>
<path d="M2563 470 c0 -30 2 -43 4 -27 2 15 2 39 0 55 -2 15 -4 2 -4 -28z"/>
<path d="M2600 470 c0 -46 2 -50 23 -49 16 1 18 2 5 6 -10 2 -18 13 -18 23 0
10 8 21 18 23 16 4 16 5 0 6 -10 0 -18 7 -18 15 0 8 8 17 18 19 13 4 11 5 -5
6 -21 1 -23 -3 -23 -49z"/>
<path d="M881 483 c-10 -26 -10 -27 4 -9 8 11 15 23 15 28 0 15 -7 8 -19 -19z"/>
<path d="M926 456 c-28 -47 -113 -129 -127 -121 -4 3 -21 -8 -38 -24 -16 -16
-40 -32 -51 -36 -12 -4 -19 -9 -17 -12 8 -8 130 58 175 95 39 32 100 127 89
138 -3 3 -16 -15 -31 -40z"/>
<path d="M965 423 c-33 -36 -62 -70 -64 -77 -6 -17 -33 -46 -44 -46 -5 0 -4 7
4 16 7 8 -15 -3 -48 -26 -60 -41 -95 -52 -183 -53 -41 -1 -187 19 -215 29 -14
5 -17 4 -10 -4 6 -6 30 -16 55 -22 95 -24 108 -30 52 -24 -29 2 -60 8 -70 11
-16 7 -16 5 -1 -17 17 -27 45 -37 97 -39 18 -1 31 -5 28 -10 -3 -5 -24 -7 -46
-4 -45 6 -53 -3 -16 -17 14 -5 26 -19 28 -32 2 -17 11 -24 31 -26 41 -5 134
17 155 36 10 9 13 14 7 10 -40 -25 -155 -31 -155 -8 0 4 19 12 43 17 40 10 41
11 10 12 -41 1 -44 21 -3 21 46 0 158 46 231 95 70 47 113 91 155 156 43 69
22 69 -41 2z m-309 -229 c-33 -8 -65 -13 -70 -10 -17 6 55 24 94 24 29 0 24
-2 -24 -14z"/>
<path d="M910 474 c0 -5 -21 -34 -47 -64 -26 -30 -37 -46 -24 -35 35 30 84 95
77 102 -3 4 -6 2 -6 -3z"/>
<path d="M578 453 c7 -3 16 -2 19 1 4 3 -2 6 -13 5 -11 0 -14 -3 -6 -6z"/>
<path d="M820 407 c-25 -23 -56 -50 -70 -60 -24 -17 -24 -17 8 0 28 15 124
103 112 103 -3 0 -25 -20 -50 -43z"/>
<path d="M553 423 c9 -2 25 -2 35 0 9 3 1 5 -18 5 -19 0 -27 -2 -17 -5z"/>
<path d="M1110 295 c0 -30 5 -55 10 -55 6 0 10 11 10 24 0 18 7 26 23 29 l22
4 -22 2 c-16 1 -23 7 -23 20 0 12 8 21 23 24 16 3 13 5 -10 6 l-33 1 0 -55z"/>
<path d="M1202 318 c-20 -20 -12 -78 11 -78 7 0 7 4 -1 12 -15 15 -15 51 0 66
7 7 10 12 7 12 -3 0 -10 -5 -17 -12z"/>
<path d="M1270 313 c11 -17 12 -27 1 -49 -11 -24 -10 -26 3 -14 21 16 20 54
-1 71 -15 13 -15 12 -3 -8z"/>
<path d="M1312 284 c1 -46 2 -47 5 -9 l4 39 34 -39 34 -40 -1 50 c-1 38 -2 42
-5 16 l-4 -34 -35 34 -34 33 2 -50z"/>
<path d="M1420 316 c-18 -22 -8 -57 20 -73 22 -13 23 -13 8 0 -21 16 -24 73
-5 80 7 4 8 6 1 6 -6 1 -17 -6 -24 -13z"/>
<path d="M1530 285 c0 -25 5 -45 10 -45 6 0 10 20 10 45 0 25 -4 45 -10 45 -5
0 -10 -20 -10 -45z"/>
<path d="M1593 285 c0 -27 2 -38 4 -22 2 15 2 37 0 50 -2 12 -4 0 -4 -28z"/>
<path d="M1632 318 c-17 -17 -15 -53 5 -69 15 -13 15 -12 5 8 -8 15 -9 30 -2
47 11 29 9 31 -8 14z"/>
<path d="M1698 318 c7 -7 12 -21 12 -33 0 -12 -5 -26 -12 -33 -9 -9 -9 -12 0
-12 6 0 16 10 23 21 13 25 -2 69 -23 69 -9 0 -9 -3 0 -12z"/>
<path d="M1741 283 l2 -48 6 39 6 40 32 -37 c18 -20 35 -37 38 -37 3 0 4 21 3
48 -1 36 -2 39 -5 15 -2 -18 -7 -33 -9 -33 -3 0 -17 14 -31 30 -13 17 -29 30
-34 30 -5 0 -8 -21 -8 -47z"/>
<path d="M1851 283 l2 -48 6 40 6 40 30 -37 c17 -21 33 -38 38 -38 4 0 6 21 5
48 -1 36 -2 39 -5 15 -5 -41 -16 -41 -43 -3 -30 42 -40 37 -39 -17z"/>
<path d="M1960 285 c0 -25 3 -45 8 -45 4 0 7 20 7 45 0 25 -3 45 -7 45 -5 0
-8 -20 -8 -45z"/>
<path d="M2031 288 c-1 -27 3 -48 7 -48 4 0 6 17 4 38 -5 58 -10 62 -11 10z"/>
<path d="M2101 288 c-1 -27 3 -48 7 -48 4 0 6 17 4 38 -5 58 -10 62 -11 10z"/>
<path d="M2170 283 c0 -25 2 -44 5 -41 9 8 12 88 3 88 -4 0 -8 -21 -8 -47z"/>
<path d="M720 174 c-39 -14 -55 -23 -40 -23 14 0 48 11 75 24 64 30 48 30 -35
-1z"/>
<path d="M1054 156 c-3 -7 -4 -33 -2 -57 3 -41 5 -44 33 -46 20 -1 23 0 8 4
-16 3 -23 12 -23 28 0 17 7 25 23 28 l22 4 -22 2 c-16 1 -23 7 -23 22 0 16 5
20 20 16 11 -3 20 -1 20 4 0 15 -50 10 -56 -5z"/>
<path d="M916 152 c-4 -6 -4 -16 -1 -22 3 -5 -1 -19 -9 -31 -20 -28 -10 -49
23 -48 23 2 24 2 4 6 -14 3 -23 12 -23 23 0 31 16 31 39 0 12 -17 27 -30 33
-30 7 0 7 4 -1 14 -8 10 -9 16 -1 21 5 3 10 11 10 18 0 6 -6 2 -14 -8 -13 -18
-14 -18 -25 3 -7 14 -8 23 -1 27 5 3 10 14 9 23 0 12 -4 9 -11 -8 l-11 -25 -6
25 c-5 17 -9 21 -15 12z"/>
<path d="M1131 142 c-1 -16 39 -96 45 -90 2 3 -7 27 -21 54 -13 27 -24 43 -24
36z"/>
<path d="M1235 130 c-15 -16 -17 -26 -9 -47 5 -14 16 -28 24 -31 12 -4 13 -2
3 9 -16 17 -17 61 -1 77 7 7 10 12 7 12 -3 0 -14 -9 -24 -20z"/>
<path d="M1300 138 c14 -17 12 -62 -2 -77 -11 -10 -10 -11 5 -5 28 10 33 53 8
75 -11 10 -16 14 -11 7z"/>
<path d="M1528 143 c7 -3 12 -23 12 -49 0 -24 5 -44 10 -44 6 0 10 20 10 44 0
26 5 46 13 49 6 3 -4 5 -23 5 -19 0 -29 -2 -22 -5z"/>
<path d="M1603 100 c0 -30 2 -43 4 -28 2 16 2 40 0 55 -2 16 -4 3 -4 -27z"/>
<path d="M1630 146 c0 -2 9 -26 21 -53 l21 -48 13 25 c8 14 14 30 14 35 0 6
-6 -1 -13 -14 -13 -23 -13 -23 -29 18 -14 35 -27 52 -27 37z"/>
<path d="M1730 100 c0 -48 1 -50 28 -49 21 1 22 3 6 6 -17 3 -21 11 -21 43 0
32 4 40 21 43 16 3 15 5 -6 6 -27 1 -28 -1 -28 -49z"/>
<path d="M1196 125 c-9 -26 -7 -32 5 -12 6 10 9 21 6 23 -2 3 -7 -2 -11 -11z"/>
<path d="M1340 95 c0 -43 1 -45 28 -44 16 1 20 3 10 6 -13 3 -18 15 -18 44 0
21 -4 39 -10 39 -5 0 -10 -20 -10 -45z"/>
<path d="M1410 114 c0 -38 18 -64 43 -64 33 0 47 19 46 60 l-2 35 -6 -40 c-5
-34 -10 -40 -33 -43 -27 -3 -28 -1 -28 37 0 23 -4 41 -10 41 -5 0 -10 -12 -10
-26z"/>
<path d="M578 63 c12 -2 30 -2 40 0 9 3 -1 5 -23 4 -22 0 -30 -2 -17 -4z"/>
<path d="M608 23 c7 -3 16 -2 19 1 4 3 -2 6 -13 5 -11 0 -14 -3 -6 -6z"/>
</g>
</svg>
